<svg fill="#000000" xmlns="http://www.w3.org/2000/svg" viewBox="0 0 64 64" width="64px" height="64px"><path d="M 54.601562 2.0019531 A 1.0001 1.0001 0 0 0 54.347656 2.0332031 L 30.710938 8.1699219 A 1.0001 1.0001 0 0 0 30.097656 8.6328125 L 26.869141 14.162109 L 20.353516 14.111328 A 1.0001 1.0001 0 0 0 19.646484 14.394531 L 2.3007812 31.283203 A 1.0001 1.0001 0 0 0 2.3027344 32.716797 L 19.648438 49.550781 A 1.0001 1.0001 0 0 0 20.351562 49.833984 L 26.869141 49.785156 L 30.097656 55.3125 A 1.0001 1.0001 0 0 0 30.707031 55.777344 L 54.34375 61.966797 A 1.0001 1.0001 0 0 0 55.5625 61.265625 L 61.910156 38.269531 A 1.0001 1.0001 0 0 0 61.804688 37.490234 L 58.537109 32.027344 L 61.806641 26.564453 A 1.0001 1.0001 0 0 0 61.912109 25.785156 L 55.5625 2.7363281 A 1.0001 1.0001 0 0 0 54.601562 2.0019531 z M 53.896484 4.2167969 L 59.871094 25.904297 L 56.916016 30.839844 L 52.144531 14.197266 A 1.0001 1.0001 0 0 0 50.324219 13.960938 L 39.919922 31.462891 A 1.0001 1.0001 0 0 0 39.919922 32.484375 L 50.324219 49.984375 A 1.0001 1.0001 0 0 0 52.144531 49.75 L 56.894531 33.179688 L 59.869141 38.148438 L 53.896484 59.78125 L 31.615234 53.947266 L 28.707031 48.966797 L 45.925781 53.271484 A 1.0001 1.0001 0 0 0 47.027344 51.791016 L 36.623047 34.289062 A 1.0001 1.0001 0 0 0 35.763672 33.800781 L 14.955078 33.800781 A 1.0001 1.0001 0 0 0 14.251953 35.511719 L 26.626953 47.785156 L 20.746094 47.830078 L 4.4335938 32 L 20.748047 16.115234 L 26.574219 16.160156 L 14.201172 28.380859 A 1.0001 1.0001 0 0 0 14.902344 30.091797 L 35.710938 30.091797 A 1.0001 1.0001 0 0 0 36.570312 29.603516 L 46.974609 12.103516 A 1.0001 1.0001 0 0 0 45.871094 10.621094 L 28.746094 14.916016 L 31.615234 10 L 53.896484 4.2167969 z M 13.539062 12.048828 C 13.284438 12.047453 13.029438 12.142437 12.835938 12.335938 C 12.448937 12.721937 12.45375 13.351187 12.84375 13.742188 L 14.257812 15.15625 C 14.647812 15.54625 15.277062 15.551063 15.664062 15.164062 C 16.051063 14.778063 16.04725 14.148813 15.65625 13.757812 L 14.242188 12.34375 C 14.047188 12.14875 13.793687 12.050203 13.539062 12.048828 z M 44.027344 13.146484 L 35.142578 28.091797 L 17.337891 28.091797 L 28.535156 17.03125 L 44.027344 13.146484 z M 10.039062 15.548828 C 9.7844375 15.547453 9.5294375 15.642437 9.3359375 15.835938 C 8.9489375 16.221938 8.95375 16.851187 9.34375 17.242188 L 10.757812 18.65625 C 11.147812 19.04625 11.777062 19.051063 12.164062 18.664062 C 12.551063 18.278062 12.54725 17.648812 12.15625 17.257812 L 10.742188 15.84375 C 10.547188 15.64875 10.293687 15.550203 10.039062 15.548828 z M 50.859375 16.972656 L 55.160156 31.972656 L 50.861328 46.974609 L 41.943359 31.972656 L 50.859375 16.972656 z M 6.5390625 19.048828 C 6.2844375 19.047453 6.0294375 19.142437 5.8359375 19.335938 C 5.4489375 19.721938 5.45375 20.351187 5.84375 20.742188 L 7.2578125 22.15625 C 7.6478125 22.54625 8.2770625 22.551063 8.6640625 22.164062 C 9.0510625 21.778062 9.04725 21.148812 8.65625 20.757812 L 7.2421875 19.34375 C 7.0471875 19.14875 6.7936875 19.050203 6.5390625 19.048828 z M 3.0390625 22.548828 C 2.7844375 22.547453 2.5294375 22.642437 2.3359375 22.835938 C 1.9489375 23.221938 1.95375 23.851187 2.34375 24.242188 L 3.7578125 25.65625 C 4.1478125 26.04625 4.7770625 26.051063 5.1640625 25.664062 C 5.5510625 25.278062 5.54725 24.648812 5.15625 24.257812 L 3.7421875 22.84375 C 3.5471875 22.64875 3.2936875 22.550203 3.0390625 22.548828 z M 17.382812 35.800781 L 35.195312 35.800781 L 44.082031 50.75 L 28.535156 46.861328 L 17.382812 35.800781 z M 4.4628906 38.048828 C 4.2082656 38.050203 3.9533125 38.14875 3.7578125 38.34375 L 2.34375 39.757812 C 1.95375 40.147813 1.9489375 40.777062 2.3359375 41.164062 C 2.7219375 41.551062 3.3511875 41.54725 3.7421875 41.15625 L 5.15625 39.742188 C 5.54625 39.352188 5.5510625 38.722938 5.1640625 38.335938 C 4.9710625 38.142437 4.7175156 38.047453 4.4628906 38.048828 z M 7.9628906 41.548828 C 7.7082656 41.550203 7.4533125 41.64875 7.2578125 41.84375 L 5.84375 43.257812 C 5.45375 43.647813 5.4489375 44.277062 5.8359375 44.664062 C 6.2219375 45.051062 6.8511875 45.04725 7.2421875 44.65625 L 8.65625 43.242188 C 9.04625 42.852188 9.0510625 42.222938 8.6640625 41.835938 C 8.4710625 41.642437 8.2175156 41.547453 7.9628906 41.548828 z M 11.462891 45.048828 C 11.208266 45.050203 10.953312 45.14875 10.757812 45.34375 L 9.34375 46.757812 C 8.95375 47.147813 8.9489375 47.777062 9.3359375 48.164062 C 9.7219375 48.551062 10.351187 48.54725 10.742188 48.15625 L 12.15625 46.742188 C 12.54625 46.352187 12.551063 45.722938 12.164062 45.335938 C 11.971062 45.142438 11.717516 45.047453 11.462891 45.048828 z M 14.962891 48.546875 C 14.708266 48.548125 14.453312 48.64825 14.257812 48.84375 L 12.84375 50.257812 C 12.45375 50.647813 12.448937 51.277062 12.835938 51.664062 C 13.221938 52.051062 13.851187 52.04725 14.242188 51.65625 L 15.65625 50.242188 C 16.04625 49.852187 16.050063 49.222938 15.664062 48.835938 C 15.471062 48.642437 15.217516 48.545625 14.962891 48.546875 z"/></svg>